# xmcd
#
# Track frame offsets:
#	150
#	10102
#	21304
#	32080
#	42282
#	54273
#	66932
#	77856
#	95162
#	106830
#	118113
#	129029
#	137116
#	148444
#	160284
#	174359
#	185059
#	195369
#	207814
#	236220
#
# Disc length: 3302
#
# Revision: 2
# Processed by: cddbd v1.5.1PL0 Copyright (c) Steve Scherf et al.
# Submitted via: dBpowerAMP V4.0
# Normalized: r0:TRMNUM;r1:DSETVAR1,TDELIM( - )
#
DISCID=1b0ce414
DTITLE=Various Artist - Soul Function
DYEAR=2004
DGENRE=Soul
TTITLE0=The Royal Esquires - Ain't Gonna Run
TTITLE1=Calvin Grayson - You've Got To Be Willing
TTITLE2=Dave Charles - Ain't Gonna Cry No More
TTITLE3=Doris Troy - Face Up To The Truth
TTITLE4=Harry Deal and The Galaxies - I Still Love You
TTITLE5=Kiki Dee - Magic On A Carpet Ride
TTITLE6=Nancy Butts - I Want To Hold Your Hand
TTITLE7=Charles Mann - Shonuff No Funny Stuff Love
TTITLE8=The Soulful Twins - Can't Let You Go
TTITLE9=Steve Mancha - Friday Night
TTITLE10=The Enchanters - There's A Look About You
TTITLE11=Lela Martin - You Can't Hurry Your Cake
TTITLE12=Willy McDougal - Don't Turn Away
TTITLE13=Bobby Jonz - Win Your Love
TTITLE14=Clay Hunt - Your Love's Gone Bad
TTITLE15=Emmit Long - Call Me
TTITLE16=Judy Street - What
TTITLE17=The Mylestones - The Joker
TTITLE18=Mojo - Let's Get Ugly
TTITLE19=Tommy Neal - Going To A Happening
EXTD=
EXTT0=
EXTT1=
EXTT2=
EXTT3=
EXTT4=
EXTT5=
EXTT6=
EXTT7=
EXTT8=
EXTT9=
EXTT10=
EXTT11=
EXTT12=
EXTT13=
EXTT14=
EXTT15=
EXTT16=
EXTT17=
EXTT18=
EXTT19=
PLAYORDER=
